HIERARCHY
ROOT Bip001_Pelvis
{
  OFFSET 34.4345 95.6767 -26.8758
  CHANNELS 6 Xposition Yposition Zposition Zrotation Xrotation Yrotation
  JOINT Bip001_Spine
  {
    OFFSET 1.4188e-005 10.2191 -0.0116013
    CHANNELS 3 Zrotation Xrotation Yrotation
    JOINT Bip001_L_Thigh
    {
      OFFSET 11.0458 -10.2192 0.0116197
      CHANNELS 3 Zrotation Xrotation Yrotation
      JOINT Bip001_L_Calf
      {
        OFFSET -0.707118 -44.0221 0.360014
        CHANNELS 3 Zrotation Xrotation Yrotation
        JOINT Bip001_L_Foot
        {
          OFFSET -0.651902 -40.5938 -3.56146
          CHANNELS 3 Zrotation Xrotation Yrotation
          JOINT Bip001_L_Toe0
          {
            OFFSET 0.0530839 -10.2181 13.1504
            CHANNELS 3 Zrotation Xrotation Yrotation
            End Site
            {
              OFFSET -1.02532e-005 0 7.55606
            }
          }
        }
      }
    }
    JOINT Bip001_R_Thigh
    {
      OFFSET -11.0458 -10.2191 0.0115893
      CHANNELS 3 Zrotation Xrotation Yrotation
      JOINT Bip001_R_Calf
      {
        OFFSET 0.706994 -44.0221 0.35984
        CHANNELS 3 Zrotation Xrotation Yrotation
        JOINT Bip001_R_Foot
        {
          OFFSET 0.651786 -40.5938 -3.5613
          CHANNELS 3 Zrotation Xrotation Yrotation
          JOINT Bip001_R_Toe0
          {
            OFFSET -0.0531479 -10.2181 13.1504
            CHANNELS 3 Zrotation Xrotation Yrotation
            End Site
            {
              OFFSET -1.02894e-005 0 7.55606
            }
          }
        }
      }
    }
    JOINT Bip001_Spine1
    {
      OFFSET 1.87041e-005 14.5736 1.08638
      CHANNELS 3 Zrotation Xrotation Yrotation
      JOINT Bip001_Spine2
      {
        OFFSET 2.24614e-005 14.5058 -1.69078
        CHANNELS 3 Zrotation Xrotation Yrotation
        JOINT Bip001_Neck
        {
          OFFSET 2.20278e-005 15.3945 -0.489414
          CHANNELS 3 Zrotation Xrotation Yrotation
          JOINT Bip001_L_Clavicle
          {
            OFFSET 6.06036 -0.000579998 0.00836775
            CHANNELS 3 Zrotation Xrotation Yrotation
            JOINT Bip001_L_UpperArm
            {
              OFFSET 11.5509 -0.0600302 0.00193952
              CHANNELS 3 Zrotation Xrotation Yrotation
              JOINT Bip001_L_Forearm
              {
                OFFSET 25.9523 0.0806089 -2.15551
                CHANNELS 3 Zrotation Xrotation Yrotation
                JOINT Bip001_L_Hand
                {
                  OFFSET 32.2475 0.153767 1.63968
                  CHANNELS 3 Zrotation Xrotation Yrotation
                  JOINT Bip001_L_Finger0
                  {
                    OFFSET 6.04639 -2.20976 5.90322
                    CHANNELS 3 Zrotation Xrotation Yrotation
                    End Site
                    {
                      OFFSET 4.22375 -1.43895 0.606485
                    }
                  }
                  JOINT Bip001_L_Finger1
                  {
                    OFFSET 11.0826 -0.704819 -0.198153
                    CHANNELS 3 Zrotation Xrotation Yrotation
                    End Site
                    {
                      OFFSET 6.20027 -0.397518 -0.0787166
                    }
                  }
                }
              }
            }
          }
          JOINT Bip001_R_Clavicle
          {
            OFFSET -6.06037 -0.000563197 0.00835105
            CHANNELS 3 Zrotation Xrotation Yrotation
            JOINT Bip001_R_UpperArm
            {
              OFFSET -11.5509 -0.0599978 0.00190698
              CHANNELS 3 Zrotation Xrotation Yrotation
              JOINT Bip001_R_Forearm
              {
                OFFSET -25.9523 0.0806822 -2.15589
                CHANNELS 3 Zrotation Xrotation Yrotation
                JOINT Bip001_R_Hand
                {
                  OFFSET -32.2475 0.153859 1.63989
                  CHANNELS 3 Zrotation Xrotation Yrotation
                  JOINT Bip001_R_Finger0
                  {
                    OFFSET -6.04641 -2.20976 5.90317
                    CHANNELS 3 Zrotation Xrotation Yrotation
                    End Site
                    {
                      OFFSET -4.22376 -1.43895 0.60647
                    }
                  }
                  JOINT Bip001_R_Finger1
                  {
                    OFFSET -11.0826 -0.704794 -0.198182
                    CHANNELS 3 Zrotation Xrotation Yrotation
                    End Site
                    {
                      OFFSET -6.20028 -0.397504 -0.0787333
                    }
                  }
                }
              }
            }
          }
          JOINT Bip001_Head
          {
            OFFSET 1.09673e-005 11.2744 2.05948
            CHANNELS 3 Zrotation Xrotation Yrotation
            End Site
            {
              OFFSET 2.89576e-005 20.8808 -2.77728e-005
            }
          }
        }
      }
    }
  }
}
MOTION
Frames:	5
Frame Time:	0.04
33.3155 95.9867 -28.7395 0.29759 -0.585222 4.52925 -0.288851 2.06626 0.38979 5.30291 -3.53977 6.01927 -0.745144 7.46147 -9.28189 2.18742 -4.10603 -0.0157311 0.737306 -3.70817 -0.354289 -2.96081 -1.89399 -2.25118 0.076274 9.30687 -0.0120707 -6.18365 -8.56531 -0.157633 2.27184 -7.66171 2.30662 -0.596521 4.13049 0.790682 -0.594606 4.13052 0.790919 -0.00869912 -10.679 -4.27274 -23.6083 11.0327 1.69678 -56.1686 41.6528 5.96754 16.0448 -3.96773 -24.1094 7.9173 1.59281 -2.96715 -1.76556e-031 3.18055e-015 3.18055e-015 -3.53113e-031 3.18056e-015 6.36111e-015 17.2415 18.5661 25.853 60.4095 -48.7833 20.0625 -39.2865 -12.697 112.06 -38.889 6.58331 1.35659 -5.51738e-032 -1.59028e-015 -1.98785e-015 1.59028e-015 -1.59028e-015 -3.97569e-015 -0.710643 -3.00776 -3.95458 
33.312 95.9877 -28.7686 0.283863 -0.455109 4.89641 -0.304525 2.0251 0.428654 5.34765 -3.73279 6.08238 -0.777596 7.48145 -9.77244 2.39537 -3.95757 -0.0155034 0.792469 -3.81757 -0.391244 -2.90588 -1.94879 -2.29954 0.0814808 9.321 -0.091755 -6.23926 -8.50403 -0.415672 2.28654 -7.69802 2.31561 -0.626035 4.04779 0.866564 -0.625773 4.04778 0.867874 -0.0698421 -10.7368 -4.44026 -23.6202 11.0048 1.94281 -56.2056 42.1029 6.04651 16.1076 -4.39948 -24.3168 7.89787 1.57331 -2.82962 3.18055e-015 0 3.18055e-015 -1.76556e-031 3.18056e-015 3.18055e-015 15.5688 18.7197 28.4124 61.8754 -46.3428 26.7406 -41.1389 -14.116 111.737 -39.3401 7.2144 0.968098 1.59028e-015 -3.18055e-015 5.96354e-015 7.95139e-016 -3.18056e-015 1.19271e-015 -0.607234 -2.92169 -4.16564 
33.2561 95.9944 -28.7631 0.0665373 -0.357136 5.31634 -0.285996 1.97524 0.423117 5.6321 -4.02841 5.92314 -0.848971 7.78834 -9.99236 2.34028 -4.08837 -0.0154421 0.760364 -3.7657 -0.369995 -2.61185 -1.76188 -2.21483 0.0638801 8.91357 -0.172929 -6.33855 -8.26665 -0.788189 2.28729 -7.69516 2.30828 -0.588207 3.94829 0.859972 -0.58764 3.94831 0.858469 -0.214735 -10.7266 -4.50418 -23.611 10.8877 2.33602 -56.3414 42.4553 6.31002 16.3023 -4.72278 -24.65 7.87472 1.60304 -2.67095 -3.18055e-015 9.54166e-015 -0 0 9.54167e-015 -0 14.0294 18.7684 31.1089 61.1649 -43.1632 31.8175 -43.5936 -14.6101 109.424 -40.1785 7.3227 0.544658 3.97569e-016 -3.18055e-015 1.98785e-016 3.97569e-016 0 -1.39149e-015 -0.343953 -2.74559 -4.30198 
33.2287 96.002 -28.7499 -0.113986 -0.210912 5.73126 -0.263388 1.92545 0.471581 5.7948 -4.2924 5.6123 -0.859462 7.92667 -10.103 2.32085 -4.12688 -0.0154346 0.780355 -3.76225 -0.393623 -2.40103 -1.63253 -2.16656 0.0704779 8.56057 -0.201358 -6.44516 -8.03182 -1.17161 2.28878 -7.70283 2.30744 -0.534932 3.84869 0.952679 -0.535406 3.84868 0.952647 -0.00366877 -10.5331 -4.75199 -23.9554 10.6299 2.33275 -56.5096 42.5621 6.62532 16.2934 -5.18426 -24.9904 8.01127 1.60513 -2.59476 1.59028e-015 6.36111e-015 3.18055e-015 3.18055e-015 9.54167e-015 3.18055e-015 12.2972 18.3898 32.7718 58.9195 -37.9191 36.3416 -46.114 -13.3705 105.018 -40.1874 7.65211 0.485193 7.95139e-016 -3.18055e-015 8.94531e-016 -1.98785e-016 -6.36111e-015 -3.97569e-016 -0.6242 -2.9577 -4.44145 
33.2067 95.9995 -28.7547 -0.143138 -0.073481 5.97236 -0.262633 1.90761 0.490169 5.82021 -4.49263 5.69206 -0.834925 7.96769 -10.5038 2.42151 -4.03991 -0.0153747 0.754985 -3.84859 -0.362883 -2.35806 -1.75281 -2.02394 0.13292 8.6109 -0.208468 -6.57474 -7.97344 -1.55652 2.29104 -7.72664 2.30716 -0.542777 3.81397 0.996554 -0.54261 3.81397 0.996696 -0.00804956 -10.4986 -4.82314 -24.0042 10.5803 2.34634 -56.8837 42.337 7.21334 16.4418 -5.22494 -25.6827 8.01569 1.51871 -2.63673 7.95139e-015 -6.36111e-015 -0 6.36111e-015 -6.36111e-015 3.18055e-015 10.4309 17.9247 34.1863 57.2226 -32.234 41.8966 -49.0952 -10.0439 98.3304 -38.5069 8.31835 0.463073 3.97569e-016 3.18055e-015 9.93923e-016 3.31043e-032 -3.18056e-015 5.96354e-016 -0.689169 -3.16322 -4.50009 
